<?xml version="1.0"?>
<svg xmlns="http://www.w3.org/2000/svg" viewBox="0 0 50 50">
    <path style="line-height:normal;text-indent:0;text-align:start;text-decoration-line:none;text-decoration-style:solid;text-decoration-color:#000;text-transform:none;block-progression:tb;isolation:auto;mix-blend-mode:normal" d="M 9 6 C 6.8027056 6 5 7.8027056 5 10 C 5 12.197294 6.8027056 14 9 14 C 11.197294 14 13 12.197294 13 10 C 13 7.8027056 11.197294 6 9 6 z M 41 6 C 38.802706 6 37 7.8027056 37 10 C 37 12.197294 38.802706 14 41 14 C 43.197294 14 45 12.197294 45 10 C 45 7.8027056 43.197294 6 41 6 z M 9 8 C 10.116414 8 11 8.8835859 11 10 C 11 11.116414 10.116414 12 9 12 C 7.8835859 12 7 11.116414 7 10 C 7 8.8835859 7.8835859 8 9 8 z M 41 8 C 42.116414 8 43 8.8835859 43 10 C 43 11.116414 42.116414 12 41 12 C 39.883586 12 39 11.116414 39 10 C 39 8.8835859 39.883586 8 41 8 z M 9 15 C 6.8026661 15 5 16.802666 5 19 A 1.0001 1.0001 0 0 0 5 19.001953 L 5.0097656 28.25 A 1.0001 1.0001 0 0 0 5.0136719 28.332031 C 5.1862319 30.39616 6.9288889 32 9 32 L 13.490234 32 L 13.339844 33 L 5.9296875 33 C 4.8967873 33 4.0628387 32.21359 4 31.183594 L 4 17 A 1.0001 1.0001 0 0 0 2.984375 15.986328 A 1.0001 1.0001 0 0 0 2 17 L 2 31.238281 A 1.0001 1.0001 0 0 0 2.0019531 31.296875 C 2.0809982 32.644084 2.8492823 33.797964 3.9433594 34.445312 L 3.0058594 42.888672 A 1.0003547 1.0003547 0 0 0 4.9941406 43.111328 L 5.8964844 34.996094 C 5.9078127 34.996191 5.9183386 35 5.9296875 35 L 13.039062 35 L 12.011719 41.851562 A 1.0001 1.0001 0 0 0 12.335938 42.748047 C 12.335938 42.748047 12.799979 43.135596 13.558594 43.431641 C 14.317209 43.727686 15.446558 44 17 44 C 18.553442 44 19.682791 43.727686 20.441406 43.431641 C 20.785681 43.29729 20.788986 43.24849 20.996094 43.121094 C 21.200228 43.249745 21.198815 43.29834 21.53125 43.429688 C 22.286985 43.728279 23.417544 44 25 44 C 26.581994 44 27.712971 43.728237 28.46875 43.429688 C 28.798858 43.299287 28.796292 43.251049 29 43.123047 C 29.20369 43.25111 29.201161 43.299269 29.53125 43.429688 C 30.286985 43.728279 31.417544 44 33 44 C 34.581994 44 35.712971 43.728237 36.46875 43.429688 C 37.224529 43.131138 37.685547 42.728516 37.685547 42.728516 A 1.0001 1.0001 0 0 0 37.988281 41.851562 L 36.960938 35 L 44.070312 35 C 44.081661 35 44.092187 34.996191 44.103516 34.996094 L 45.005859 43.111328 A 1.0003551 1.0003551 0 1 0 46.994141 42.888672 L 46.056641 34.445312 C 47.150718 33.797964 47.919004 32.644081 47.998047 31.296875 A 1.0001 1.0001 0 0 0 48 31.238281 L 48 17 A 1.0001 1.0001 0 0 0 46.984375 15.986328 A 1.0001 1.0001 0 0 0 46 17 L 46 31.183594 C 45.937161 32.21359 45.103213 33 44.070312 33 L 36.660156 33 L 36.509766 32 L 41 32 C 43.071111 32 44.813764 30.396159 44.986328 28.332031 A 1.0001 1.0001 0 0 0 44.990234 28.25 L 45 19.001953 A 1.0001 1.0001 0 0 0 45 19 C 45 16.802666 43.197334 15 41 15 C 38.815138 15 37.237423 16.809522 37.005859 18.888672 A 1.0001 1.0001 0 0 0 37 19 L 37 26 L 35.611328 26 L 34.988281 21.851562 A 1.0001 1.0001 0 0 0 34 21 L 16 21 A 1.0001 1.0001 0 0 0 15.011719 21.851562 L 14.388672 26.001953 A 1.0001 1.0001 0 0 0 14.3125 26 L 13 26 L 13 19 A 1.0001 1.0001 0 0 0 12.994141 18.888672 C 12.762618 16.809522 11.184862 15 9 15 z M 9 17 C 10.124103 17 10.85099 17.810884 11 19.097656 L 11 27 A 1.0001 1.0001 0 0 0 12 28 L 14.089844 28 L 13.789062 30 L 9 30 C 7.9542587 30 7.10154 29.215016 7.0097656 28.173828 L 7 18.998047 C 7.0010404 17.882314 7.8839921 17 9 17 z M 41 17 C 42.116666 17 43 17.883334 43 19 L 42.990234 28.173828 C 42.898494 29.215016 42.045741 30 41 30 L 36.210938 30 L 35.910156 28 L 38 28 A 1.0001 1.0001 0 0 0 39 27 L 39 19.097656 C 39.14901 17.810884 39.875897 17 41 17 z M 16.861328 23 L 33.138672 23 L 35.912109 41.478516 C 35.827699 41.520836 35.890709 41.508553 35.734375 41.570312 C 35.224404 41.77176 34.355006 42 33 42 C 31.644456 42 30.77539 41.771721 30.265625 41.570312 C 30.124546 41.514572 30.081586 41.485263 30 41.445312 L 30 38 A 1.0001 1.0001 0 0 0 28.984375 36.986328 A 1.0001 1.0001 0 0 0 28 38 L 28 41.445312 C 27.918407 41.485264 27.87551 41.514562 27.734375 41.570312 C 27.224404 41.771763 26.355006 42 25 42 C 23.644456 42 22.77539 41.771721 22.265625 41.570312 C 22.124546 41.514572 22.081586 41.485264 22 41.445312 L 22 36 A 1.0001 1.0001 0 0 0 20.984375 34.986328 A 1.0001 1.0001 0 0 0 20 36 L 20 41.435547 C 19.912763 41.47805 19.862287 41.510821 19.714844 41.568359 C 19.192209 41.772313 18.321558 42 17 42 C 15.678442 42 14.807791 41.772314 14.285156 41.568359 C 14.120768 41.504209 14.180432 41.51407 14.089844 41.46875 L 16.861328 23 z"/>
</svg>
